<svg data-v-423bf9ae="" xmlns="http://www.w3.org/2000/svg" viewBox="0 0 512 90" class="iconLeft"><!----><!----><!----><g data-v-423bf9ae="" id="3c7f166b-af48-4c37-9f3d-16d3577448e4" fill="black" transform="matrix(5.698005199432373,0,0,5.698005199432373,107.27230072021484,-7.735038757324219)"><path d="M1.15 14.35L6.10 14.35C7.55 14.35 8.62 13.12 8.62 11.55C8.62 9.88 7.36 9.28 6.51 9.27L6.51 9.18C7.41 9.13 8.26 8.57 8.26 7.08C8.26 5.57 7.28 4.58 5.67 4.58L1.15 4.58ZM3.00 10.16L5.57 10.16C6.27 10.16 6.69 10.56 6.69 11.24L6.69 11.72C6.69 12.40 6.27 12.78 5.57 12.78L3.00 12.78ZM3.00 6.15L5.28 6.15C5.95 6.15 6.34 6.52 6.34 7.18L6.34 7.62C6.34 8.26 5.95 8.65 5.28 8.65L3.00 8.65ZM12.12 14.52C13.22 14.52 14.01 14.03 14.25 13.09L14.34 13.09C14.45 13.85 14.92 14.35 15.69 14.35L16.69 14.35L16.69 12.92L15.96 12.92L15.96 9.48C15.96 7.81 14.91 6.87 12.94 6.87C11.47 6.87 10.61 7.43 10.08 8.27L11.14 9.23C11.49 8.72 11.97 8.30 12.81 8.30C13.76 8.30 14.17 8.78 14.17 9.59L14.17 10.12L12.92 10.12C10.93 10.12 9.80 10.86 9.80 12.36C9.80 13.66 10.64 14.52 12.12 14.52ZM12.73 13.22C12.03 13.22 11.62 12.92 11.62 12.33L11.62 12.10C11.62 11.52 12.08 11.20 13.02 11.20L14.17 11.20L14.17 12.17C14.17 12.85 13.52 13.22 12.73 13.22ZM19.95 14.52C21.04 14.52 21.84 14.03 22.08 13.09L22.16 13.09C22.27 13.85 22.75 14.35 23.52 14.35L24.51 14.35L24.51 12.92L23.79 12.92L23.79 9.48C23.79 7.81 22.74 6.87 20.76 6.87C19.29 6.87 18.44 7.43 17.91 8.27L18.97 9.23C19.32 8.72 19.80 8.30 20.64 8.30C21.59 8.30 21.99 8.78 21.99 9.59L21.99 10.12L20.75 10.12C18.76 10.12 17.63 10.86 17.63 12.36C17.63 13.66 18.47 14.52 19.95 14.52ZM20.55 13.22C19.85 13.22 19.45 12.92 19.45 12.33L19.45 12.10C19.45 11.52 19.91 11.20 20.85 11.20L21.99 11.20L21.99 12.17C21.99 12.85 21.35 13.22 20.55 13.22ZM28.20 14.35L29.48 14.35L29.48 12.92L28.10 12.92L28.10 8.47L29.60 8.47L29.60 7.04L28.10 7.04L28.10 5.04L26.49 5.04L26.49 6.29C26.49 6.79 26.32 7.04 25.79 7.04L25.23 7.04L25.23 8.47L26.31 8.47L26.31 12.49C26.31 13.68 26.96 14.35 28.20 14.35ZM38.36 14.52C40.11 14.52 41.27 13.66 41.97 12.21L40.47 11.33C40.15 12.21 39.47 12.88 38.36 12.88C36.99 12.88 36.11 11.93 36.11 10.25L36.11 8.71C36.11 7.04 36.99 6.05 38.36 6.05C39.45 6.05 40.07 6.64 40.35 7.50L41.93 6.66C41.24 5.15 40.11 4.41 38.36 4.41C35.78 4.41 34.15 6.24 34.15 9.53C34.15 12.82 35.78 14.52 38.36 14.52ZM43.44 14.35L45.23 14.35L45.23 9.52C45.23 8.74 45.95 8.34 46.69 8.34C47.54 8.34 47.89 8.88 47.89 9.91L47.89 14.35L49.69 14.35L49.69 9.73C49.69 7.91 48.85 6.87 47.35 6.87C46.21 6.87 45.60 7.48 45.30 8.26L45.23 8.26L45.23 3.99L43.44 3.99ZM54.63 14.52C55.99 14.52 57.05 14 57.65 13.17L56.69 12.10C56.24 12.67 55.71 13.09 54.82 13.09C53.65 13.09 53.05 12.38 53.05 11.33L53.05 11.14L57.90 11.14L57.90 10.56C57.90 8.55 56.85 6.87 54.57 6.87C52.43 6.87 51.18 8.37 51.18 10.68C51.18 13.02 52.47 14.52 54.63 14.52ZM54.60 8.22C55.52 8.22 56.04 8.90 56.04 9.91L56.04 10.04L53.05 10.04L53.05 9.93C53.05 8.92 53.66 8.22 54.60 8.22ZM62.44 14.52C63.80 14.52 64.86 14 65.46 13.17L64.50 12.10C64.05 12.67 63.52 13.09 62.64 13.09C61.46 13.09 60.86 12.38 60.86 11.33L60.86 11.14L65.72 11.14L65.72 10.56C65.72 8.55 64.67 6.87 62.38 6.87C60.24 6.87 59.00 8.37 59.00 10.68C59.00 13.02 60.28 14.52 62.44 14.52ZM62.41 8.22C63.34 8.22 63.85 8.90 63.85 9.91L63.85 10.04L60.86 10.04L60.86 9.93C60.86 8.92 61.47 8.22 62.41 8.22ZM69.58 14.35L70.87 14.35L70.87 12.92L69.48 12.92L69.48 8.47L70.98 8.47L70.98 7.04L69.48 7.04L69.48 5.04L67.87 5.04L67.87 6.29C67.87 6.79 67.70 7.04 67.17 7.04L66.61 7.04L66.61 8.47L67.69 8.47L67.69 12.49C67.69 13.68 68.35 14.35 69.58 14.35Z"></path></g><!----><g data-v-423bf9ae="" id="9a5c0544-8ecc-422a-b298-0f46cdca1f89" transform="matrix(1.125,0,0,1.125,221.6750030517578,-243.10000610351562)" stroke="none" fill="black"><switch><g><path d="M-120.9 252.4c-3.4 0-6.2 2.2-7.2 5.2l-11.8-1.2c-.1-4.7-2.3-8.8-5.8-11.4l7.9-13.4c.7.2 1.5.4 2.4.4 4.2 0 7.6-3.4 7.6-7.6s-3.4-7.6-7.6-7.6-7.6 3.4-7.6 7.6c0 2.2.9 4.1 2.4 5.5l-7.9 13.4c-1.8-.8-3.8-1.3-6-1.3-3.6 0-6.8 1.3-9.4 3.4l-6.8-6.4c.7-1.1 1.1-2.5 1.1-3.9 0-4.2-3.4-7.6-7.6-7.6s-7.6 3.4-7.6 7.6 3.4 7.6 7.6 7.6c1.6 0 3-.5 4.3-1.3l6.8 6.4c-1.8 2.4-2.9 5.5-2.9 8.7 0 1 .1 2.1.3 3l-13.9 4.7a7.52 7.52 0 00-6.5-3.7c-4.2 0-7.6 3.4-7.6 7.6 0 4.2 3.4 7.6 7.6 7.6s7.6-3.4 7.6-7.6v-.8l13.9-4.7c2.3 5 7.3 8.4 13.2 8.4.6 0 1.1 0 1.6-.1l2.6 11.5c-2.6 1.2-4.3 3.8-4.3 6.8 0 4.2 3.4 7.6 7.6 7.6 4.2 0 7.6-3.4 7.6-7.6 0-4.2-3.4-7.6-7.6-7.6h-.1l-2.6-11.5c4.7-1.7 8.3-5.7 9.4-10.7l11.8 1.2c.4 3.8 3.6 6.7 7.5 6.7 4.2 0 7.6-3.4 7.6-7.6-.1-3.9-3.5-7.3-7.6-7.3z"></path></g></switch></g><!----></svg>